<svg width="8" height="16" viewBox="0 0 8 16" fill="none" xmlns="http://www.w3.org/2000/svg">
<path d="M7.18079 0H5.51419C4.2391 0 3.32324 0.302663 2.76664 0.907785C2.20986 1.51311 1.93172 2.4046 1.93172 3.58262V4.70551C1.93172 5.00227 1.69121 5.24278 1.39446 5.24278H0.818511C0.521759 5.24278 0.28125 5.48329 0.28125 5.78004V7.46273C0.28125 7.75948 0.521759 7.99999 0.818511 7.99999H1.39446C1.69121 7.99999 1.93172 8.2405 1.93172 8.53725V15.4627C1.93172 15.7595 2.17223 16 2.46898 16H4.70505C5.0018 16 5.24231 15.7594 5.24231 15.4627V8.53728C5.24231 8.2405 5.48285 8.00002 5.77957 8.00002H6.90888C7.20566 8.00002 7.47142 7.76077 7.50259 7.4658L7.68094 5.77699C7.71211 5.48188 7.49685 5.24278 7.20007 5.24278H5.7794C5.48265 5.24278 5.24214 5.00227 5.24214 4.70551V3.86416C5.24214 3.65712 5.25182 3.49685 5.27131 3.38349C5.29065 3.2703 5.33434 3.15872 5.40241 3.04858C5.47027 2.93864 5.58041 2.86253 5.73246 2.82042C5.88448 2.77834 6.08686 2.75721 6.33919 2.75721H7.18055C7.4773 2.75721 7.71778 2.5167 7.71778 2.21995V0.537261C7.71802 0.240509 7.47751 0 7.18079 0Z" fill="#737373"/>
</svg>
