<svg width="20" height="20" viewBox="0 0 20 20" fill="none" xmlns="http://www.w3.org/2000/svg">
<g clip-path="url(#clip0)">
<path d="M4.54391 6.65381H0.24707V19.5573H4.54391V6.65381Z" fill="white"/>
<path d="M18.6461 7.8325C17.7435 6.84722 16.5497 6.35449 15.0654 6.35449C14.5185 6.35449 14.0214 6.42176 13.5743 6.55639C13.1273 6.69093 12.7498 6.87969 12.4415 7.12278C12.1335 7.36586 11.8881 7.59152 11.706 7.79976C11.5327 7.99755 11.3634 8.22795 11.1981 8.48859V6.65376H6.91406L6.9272 7.27884C6.936 7.69564 6.94033 8.98027 6.94033 11.1329C6.94033 13.2858 6.93167 16.0939 6.91424 19.5574H11.1981V12.3568C11.1981 11.9142 11.2456 11.5627 11.3412 11.302C11.5237 10.8591 11.799 10.4883 12.1681 10.1889C12.5372 9.88921 12.995 9.73948 13.542 9.73948C14.2883 9.73948 14.8376 9.9977 15.1892 10.5142C15.5407 11.0306 15.7164 11.7447 15.7164 12.6561V19.557H20.0003V12.1617C20 10.2604 19.5489 8.81746 18.6461 7.8325Z" fill="white"/>
<path d="M2.42183 0.442871C1.70143 0.442871 1.11772 0.653526 0.670549 1.07443C0.223425 1.49542 0 2.02691 0 2.66942C0 3.30293 0.216995 3.8326 0.65103 4.25784C1.08493 4.68312 1.65793 4.89587 2.3697 4.89587H2.39574C3.12499 4.89587 3.71317 4.6833 4.16016 4.25784C4.60715 3.8326 4.82629 3.30311 4.81767 2.66942C4.809 2.02696 4.58749 1.49542 4.15359 1.07443C3.71974 0.653344 3.14227 0.442871 2.42183 0.442871Z" fill="white"/>
</g>
<defs>
<clipPath id="clip0">
<rect width="20" height="20" fill="white"/>
</clipPath>
</defs>
</svg>
