<svg width="16" height="16" viewBox="0 0 16 16" fill="none" xmlns="http://www.w3.org/2000/svg">
<path d="M3.63572 5.32275H0.198242V15.6455H3.63572V5.32275Z" fill="#737373"/>
<path d="M14.9168 6.26591C14.1948 5.47768 13.2397 5.0835 12.0523 5.0835C11.6148 5.0835 11.2172 5.13731 10.8595 5.24502C10.5019 5.35265 10.1998 5.50366 9.95324 5.69813C9.70678 5.89259 9.51049 6.07312 9.36477 6.23971C9.2262 6.39795 9.09069 6.58227 8.95847 6.79079V5.32291H5.53125L5.54176 5.82298C5.5488 6.15642 5.55227 7.18413 5.55227 8.90627C5.55227 10.6286 5.54533 12.875 5.5314 15.6459H8.95847V9.88535C8.95847 9.53126 8.99645 9.25007 9.073 9.04156C9.21894 8.68721 9.4392 8.39055 9.73451 8.15106C10.0298 7.91128 10.396 7.7915 10.8336 7.7915C11.4307 7.7915 11.87 7.99808 12.1513 8.41128C12.4325 8.82444 12.5732 9.39565 12.5732 10.1248V15.6456H16.0002V9.72927C16 8.20827 15.6391 7.05388 14.9168 6.26591Z" fill="#737373"/>
<path d="M1.93746 0.354004C1.36115 0.354004 0.894175 0.522529 0.536439 0.85925C0.17874 1.19604 0 1.62124 0 2.13524C0 2.64206 0.173596 3.0658 0.520824 3.40598C0.867942 3.74621 1.32634 3.91641 1.89576 3.91641H1.9166C2.49999 3.91641 2.97054 3.74635 3.32813 3.40598C3.68572 3.0658 3.86103 2.6422 3.85413 2.13524C3.8472 1.62128 3.66999 1.19604 3.32287 0.85925C2.97579 0.522383 2.51382 0.354004 1.93746 0.354004Z" fill="#737373"/>
</svg>
