<svg width="16" height="14" viewBox="0 0 16 14" fill="none" xmlns="http://www.w3.org/2000/svg">
<path d="M15.5283 2.1399C15.4494 2.16294 15.3705 2.1844 15.2916 2.20438C14.8095 2.32613 14.7651 2.16548 15.1142 1.81104C15.2705 1.65221 15.4087 1.47946 15.5286 1.29288C15.7975 0.874492 15.5643 0.692033 15.1068 0.88747C14.9437 0.957187 14.7778 1.0204 14.6096 1.07676C14.1382 1.23505 13.4693 0.996268 13.0493 0.729878C12.5191 0.393625 11.9165 0.225586 11.2413 0.225586C10.2955 0.225586 9.4894 0.559132 8.82245 1.2257C8.15571 1.89261 7.82216 2.69896 7.82216 3.64448C7.82216 3.77379 7.82955 3.90507 7.84415 4.03818C7.8681 4.25484 7.50321 4.4119 7.01081 4.34236C5.94566 4.19197 4.93366 3.86923 3.9746 3.37447C3.02346 2.88386 2.18401 2.26648 1.45638 1.52228C1.10856 1.1666 0.638137 1.19724 0.508268 1.67737C0.430458 1.96518 0.391759 2.2645 0.391759 2.57539C0.391759 3.16126 0.529339 3.70463 0.804557 4.20551C0.941431 4.45477 1.10173 4.68043 1.28581 4.88235C1.59543 5.22222 1.54805 5.41942 1.11706 5.29859C0.686253 5.17775 0.37054 4.99835 0.37054 5.01007C0.37054 5.02178 0.37054 5.03131 0.37054 5.03131C0.37054 5.85673 0.629721 6.58201 1.1484 7.20643C1.46791 7.59112 1.8391 7.88829 2.26182 8.09759C2.70757 8.3184 2.91522 8.44156 2.66596 8.47381C2.51558 8.49326 2.36429 8.50297 2.21211 8.50297C2.10911 8.50297 2.00105 8.4983 1.8883 8.48876C1.70999 8.47363 1.67795 8.84517 1.94828 9.26268C2.16314 9.59443 2.43815 9.88637 2.77317 10.1385C3.11393 10.3952 3.48117 10.5794 3.87431 10.6916C4.35268 10.828 4.44867 11.0763 4.02216 11.3321C2.96675 11.9654 1.79878 12.282 0.51842 12.282C0.37416 12.282 0.236551 12.2787 0.105092 12.2724C-0.123099 12.2614 0.0299897 12.4624 0.47051 12.6931C1.84705 13.4141 3.33776 13.7743 4.94287 13.7743C6.15643 13.7743 7.29612 13.5822 8.3618 13.1976C9.4271 12.8131 10.3375 12.2978 11.0925 11.6521C11.8475 11.0065 12.4986 10.2639 13.0456 9.42404C13.5924 8.58423 13.9998 7.70746 14.2681 6.79381C14.5361 5.87995 14.6703 4.96431 14.6703 4.04686C14.6703 3.9642 14.6696 3.88998 14.6683 3.82461C14.6658 3.70178 14.9907 3.36929 15.3534 3.02909C15.5172 2.87548 15.6733 2.71426 15.8225 2.54517C16.1514 2.17177 16.0057 2.00067 15.5283 2.1399Z" fill="#737373"/>
</svg>
