<svg width="24" height="24" viewBox="0 0 24 24" fill="none" xmlns="http://www.w3.org/2000/svg">
<path d="M14.25 7.25C14.25 6.00927 13.2402 5 12 5C10.7598 5 9.75 6.00927 9.75 7.25C9.75 8.49074 10.7598 9.50001 12 9.50001C13.2402 9.50001 14.25 8.49069 14.25 7.25ZM10.75 7.25C10.75 6.56052 11.3106 5.99999 12 5.99999C12.6894 5.99999 13.25 6.56052 13.25 7.25C13.25 7.93944 12.6895 8.50002 12 8.50002C11.3105 8.50002 10.75 7.93944 10.75 7.25Z" fill="#006BB3"/>
<path d="M15.4619 11.1683C13.3955 9.63904 10.6035 9.63951 8.53906 11.1679C8.20119 11.4169 8 11.8417 8 12.3046V17.4999C8 17.7763 8.22364 17.9999 8.50002 17.9999H9.5V23.4999C9.5 23.7763 9.72364 23.9999 10 23.9999H14C14.2764 23.9999 14.5 23.7763 14.5 23.4999V17.9999H15.5C15.7764 17.9999 16 17.7763 16 17.4999V12.3046C16 11.8417 15.7989 11.4169 15.4619 11.1683ZM15 16.9999H14C13.7237 16.9999 13.5 17.2236 13.5 17.4999V22.9999H10.5V17.4999C10.5 17.2235 10.2764 16.9999 10 16.9999H9.00003V12.3046C9.00003 12.1644 9.05375 12.0312 9.13381 11.9721C10.8526 10.7006 13.1465 10.7001 14.8672 11.9725C14.9464 12.0311 15 12.1644 15 12.3045V16.9999Z" fill="#006BB3"/>
<path d="M9.00002 2.50003C9.27617 2.50003 9.50003 2.27617 9.50003 2.00002C9.50003 1.72386 9.27617 1.5 9.00002 1.5C8.72387 1.5 8.5 1.72386 8.5 2.00002C8.5 2.27617 8.72387 2.50003 9.00002 2.50003Z" fill="#006BB3"/>
<path d="M12 2.50003C12.2762 2.50003 12.5 2.27617 12.5 2.00002C12.5 1.72386 12.2762 1.5 12 1.5C11.7239 1.5 11.5 1.72386 11.5 2.00002C11.5 2.27617 11.7239 2.50003 12 2.50003Z" fill="#006BB3"/>
<path d="M15 2.50003C15.2762 2.50003 15.5 2.27617 15.5 2.00002C15.5 1.72386 15.2762 1.5 15 1.5C14.7239 1.5 14.5 1.72386 14.5 2.00002C14.5 2.27617 14.7239 2.50003 15 2.50003Z" fill="#006BB3"/>
<path d="M1.5 12.5C1.5 12.2236 1.27636 12 0.999984 12H0.500016C0.223641 12 0 12.2236 0 12.5C0 12.7764 0.223641 13 0.500016 13H1.00003C1.27636 13 1.5 12.7764 1.5 12.5Z" fill="#006BB3"/>
<path d="M1.21589 13.8361L0.783279 14.0885C0.545013 14.2277 0.463919 14.5338 0.603607 14.7721C0.696372 14.9313 0.863388 15.0202 1.03523 15.0202C1.12115 15.0202 1.20811 14.9982 1.28719 14.9518L1.7198 14.6994C1.95806 14.5602 2.03916 14.2541 1.89947 14.0158C1.75987 13.777 1.45223 13.6965 1.21589 13.8361Z" fill="#006BB3"/>
<path d="M1.71977 10.2994L1.28716 10.047C1.04984 9.90778 0.742242 9.98738 0.603586 10.2266C0.463945 10.4649 0.544992 10.7711 0.783257 10.9102L1.21587 11.1626C1.29499 11.209 1.3819 11.231 1.46782 11.231C1.63971 11.231 1.80668 11.1421 1.89944 10.9829C2.03913 10.7447 1.95808 10.4385 1.71977 10.2994Z" fill="#006BB3"/>
<path d="M23.5 12H23C22.7236 12 22.5 12.2236 22.5 12.5C22.5 12.7764 22.7236 13 23 13H23.5C23.7764 13 24 12.7764 24 12.5C24 12.2236 23.7764 12 23.5 12Z" fill="#006BB3"/>
<path d="M22.5411 11.2311C22.627 11.2311 22.714 11.2092 22.7931 11.1633L23.2266 10.9108C23.4649 10.7717 23.546 10.466 23.4063 10.2273C23.2667 9.9875 22.959 9.9079 22.7227 10.0466L22.2891 10.299C22.0509 10.4382 21.9698 10.7439 22.1095 10.9826C22.2022 11.1423 22.3692 11.2311 22.5411 11.2311Z" fill="#006BB3"/>
<path d="M23.2266 14.0875L22.793 13.8351C22.5548 13.6974 22.2481 13.7765 22.1094 14.0158C21.9698 14.2546 22.0509 14.5602 22.2891 14.6994L22.7227 14.9518C22.8018 14.9977 22.8887 15.0197 22.9747 15.0197C23.1466 15.0197 23.3135 14.9308 23.4063 14.7711C23.546 14.5324 23.4649 14.2267 23.2266 14.0875Z" fill="#006BB3"/>
<path d="M21.0131 9.87159C21.0913 9.9165 21.1762 9.9375 21.2612 9.9375C21.4341 9.9375 21.603 9.84717 21.6958 9.68555L21.9458 9.24806C22.0825 9.0083 21.9995 8.70267 21.7592 8.56594C21.521 8.42873 21.2143 8.51077 21.0766 8.75198L21.0004 8.88525V2.00002C21.0004 0.896953 20.103 0 19.0004 0H5.00044C3.89789 0 3.00042 0.896953 3.00042 2.00002V8.86645L2.93499 8.75194C2.79535 8.51072 2.48869 8.42869 2.25235 8.56589C2.01211 8.70263 1.9291 9.0083 2.06583 9.24802L2.31581 9.6855C2.40858 9.84713 2.57752 9.93745 2.75039 9.93745C2.83538 9.93745 2.92031 9.91645 2.99846 9.87155C2.99925 9.87113 2.99963 9.87028 3.00042 9.86986V11.095C2.41927 11.3055 2.00044 11.8577 2.00044 12.5102C2.00044 13.1628 2.41927 13.715 3.00042 13.9255V15.1301C2.99963 15.1297 2.99925 15.1289 2.99846 15.1284C2.76113 14.9912 2.45353 15.0733 2.31581 15.3145L2.06583 15.752C1.9291 15.9917 2.01211 16.2974 2.25235 16.4341C2.33049 16.479 2.41542 16.5 2.50041 16.5C2.67328 16.5 2.84222 16.4097 2.93499 16.248L3.00042 16.1335V23.5C3.00042 23.7764 3.22406 24 3.50044 24H6.50044C6.77681 24 7.00045 23.7764 7.00045 23.5V3.99998H17.0004V23.5C17.0004 23.7764 17.2241 24 17.5005 24H20.5005C20.7768 24 21.0005 23.7764 21.0005 23.5V16.1147L21.0766 16.248C21.1694 16.4097 21.3383 16.5 21.5112 16.5C21.5962 16.5 21.6811 16.479 21.7593 16.4341C21.9995 16.2974 22.0825 15.9917 21.9458 15.752L21.6958 15.3145C21.5572 15.0733 21.2495 14.9912 21.0132 15.1284C21.0081 15.1313 21.0054 15.1365 21.0005 15.1395V13.9084C21.5872 13.7008 22.0112 13.1463 22.0112 12.4898C22.0112 11.8333 21.5872 11.2788 21.0005 11.0712V9.86058C21.0053 9.86358 21.0081 9.86873 21.0131 9.87159ZM20.0004 23H18.0004V3.99998C18.0004 3.44873 17.5522 3 17.0004 3H7.00041C6.44869 3 6.00042 3.44873 6.00042 3.99998V23H4.00041V1.99997C4.00041 1.44872 4.44867 0.999984 5.00039 0.999984H19.0004C19.5522 0.999984 20.0004 1.44872 20.0004 1.99997V23H20.0004Z" fill="#006BB3"/>
</svg>
