<svg width="36" height="36" viewBox="0 0 36 36" fill="none" xmlns="http://www.w3.org/2000/svg">
<g clip-path="url(#clip0)">
<path d="M18.0009 35.9999C27.942 35.9999 36.0009 27.941 36.0009 17.9999C36.0009 8.05884 27.942 0 18.0009 0C8.05983 0 0.000976562 8.05884 0.000976562 17.9999C0.000976562 27.941 8.05983 35.9999 18.0009 35.9999Z" fill="#4E598F"/>
<path d="M35.9714 16.9946L27.4934 8.51392C27.3529 8.55646 27.0025 8.39341 26.8484 8.42434C23.2121 9.03043 19.6969 8.42434 16.1818 9.39402C14.4848 9.87889 14.3636 11.9395 13.7575 13.2728C12.9091 15.697 13.0303 18.3637 11.9393 20.6667C11.2121 22.2425 9.51511 23.2121 8.90901 25.0303C8.70687 25.7886 8.71882 26.7445 8.49023 27.4695L16.9966 35.9718C17.3288 35.99 17.6632 36.0001 17.9999 36.0001C27.9409 36.0001 35.9998 27.9412 35.9998 18.0002C35.9999 17.6627 35.9898 17.3275 35.9714 16.9946Z" fill="#364270"/>
<path d="M25.5267 7.69678H10.4739C8.94046 7.69678 7.69727 8.9399 7.69727 10.4734V25.5262C7.69727 27.0598 8.94038 28.3028 10.4739 28.3028H17.8977L17.9106 20.9396H15.9974C15.7488 20.9396 15.547 20.7385 15.5461 20.4899L15.5368 18.1162C15.5358 17.8664 15.7384 17.6631 15.9882 17.6631H17.898V15.3697C17.898 12.7082 19.5235 11.259 21.8977 11.259H23.846C24.0951 11.259 24.2974 11.4611 24.2974 11.7104V13.7117C24.2974 13.961 24.0953 14.1631 23.8463 14.1631L22.6506 14.1638C21.3594 14.1638 21.1093 14.7773 21.1093 15.6778V17.6634H23.9464C24.217 17.6634 24.4267 17.8995 24.3947 18.1677L24.1133 20.5414C24.0865 20.7687 23.8938 20.9397 23.6651 20.9397H21.122L21.1092 28.3032H25.5266C27.0601 28.3032 28.3032 27.06 28.3032 25.5265V10.4734C28.3033 8.93997 27.0601 7.69678 25.5267 7.69678Z" fill="white"/>
<path d="M17.8975 28.3027L17.9104 20.9395H17.8789V28.3027H17.8975Z" fill="white"/>
<path d="M25.5265 7.69678H17.8789V17.6629H17.8978V15.3695C17.8978 12.7081 19.5233 11.2589 21.8975 11.2589H23.8458C24.0949 11.2589 24.2972 11.4609 24.2972 11.7103V13.7116C24.2972 13.9609 24.0951 14.163 23.8461 14.163L22.6504 14.1637C21.3592 14.1637 21.109 14.7771 21.109 15.6777V17.6632H23.9462C24.2168 17.6632 24.4264 17.8993 24.3945 18.1675L24.1131 20.5412C24.0863 20.7685 23.8936 20.9395 23.6649 20.9395H21.1218L21.109 28.303H25.5264C27.0598 28.303 28.303 27.0598 28.303 25.5263V10.4734C28.3031 8.93997 27.0599 7.69678 25.5265 7.69678Z" fill="#D1D1D1"/>
</g>
<defs>
<clipPath id="clip0">
<rect width="36" height="36" fill="white"/>
</clipPath>
</defs>
</svg>
