<svg width="36" height="36" viewBox="0 0 36 36" fill="none" xmlns="http://www.w3.org/2000/svg">
<path d="M18 36C27.9411 36 36 27.9411 36 18C36 8.05887 27.9411 0 18 0C8.05887 0 0 8.05887 0 18C0 27.9411 8.05887 36 18 36Z" fill="#CF4C3C"/>
<path d="M26.2243 15.153L23.6564 18.2425L18.8215 13.2139H12.1412L9.4375 16.1415V22.4634L22.4189 35.4528C28.2966 33.9691 33.0232 29.5945 34.999 23.9295L26.2243 15.153Z" fill="#AD3228"/>
<path d="M14.9268 19.36H18.1463C17.5812 20.9576 16.0506 22.1031 14.2589 22.09C12.0849 22.074 10.2869 20.3347 10.2027 18.1621C10.1122 15.8334 11.9805 13.9098 14.2894 13.9098C15.3453 13.9098 16.3088 14.3122 17.0351 14.9713C17.2073 15.1274 17.469 15.1286 17.6383 14.9692L18.8208 13.8565C19.0058 13.6824 19.0064 13.3883 18.8219 13.2138C17.6701 12.1223 16.1248 11.4421 14.4207 11.409C10.7863 11.3378 7.72267 14.3178 7.69743 17.9529C7.67177 21.6155 10.633 24.5925 14.2894 24.5925C17.8061 24.5925 20.6787 21.8391 20.871 18.3709C20.8761 18.3274 20.8796 16.8578 20.8796 16.8578H14.9268C14.6828 16.8578 14.4851 17.0555 14.4851 17.2995V18.9183C14.4851 19.1623 14.6828 19.36 14.9268 19.36Z" fill="white"/>
<path d="M26.3341 17.005V15.4231C26.3341 15.2093 26.1609 15.0361 25.9471 15.0361H24.6158C24.402 15.0361 24.2287 15.2093 24.2287 15.4231V17.005H22.6472C22.4334 17.005 22.2598 17.1781 22.2598 17.3921V18.7232C22.2598 18.9369 22.4332 19.1104 22.6472 19.1104H24.2287V20.692C24.2287 20.9058 24.4018 21.0791 24.6158 21.0791H25.9471C26.1609 21.0791 26.3341 20.9058 26.3341 20.692V19.1104H27.9159C28.1296 19.1104 28.3031 18.9369 28.3031 18.7232V17.3921C28.3031 17.1783 28.1296 17.005 27.9159 17.005H26.3341Z" fill="#D1D1D1"/>
</svg>
