<svg width="36" height="36" viewBox="0 0 36 36" fill="none" xmlns="http://www.w3.org/2000/svg">
<g clip-path="url(#clip0)">
<path d="M18.0009 35.9999C27.942 35.9999 36.0009 27.941 36.0009 17.9999C36.0009 8.05884 27.942 0 18.0009 0C8.05983 0 0.000976562 8.05884 0.000976562 17.9999C0.000976562 27.941 8.05983 35.9999 18.0009 35.9999Z" fill="#4376B1"/>
<path d="M35.9311 16.4271L27.7547 8.24023C22.7601 8.88971 17.5404 8.79282 12.5458 8.90897C10.4852 8.90897 8.42459 9.87865 8.78825 12.1817C9.51549 16.7877 9.87914 21.2725 9.03068 25.9998C8.89709 26.6006 8.61605 27.2013 8.24902 27.7617L16.4169 35.9297C16.9387 35.9751 17.4666 35.9997 18.0003 35.9997C27.9413 35.9997 36.0002 27.9408 36.0002 17.9998C36.0003 17.4696 35.9761 16.9454 35.9311 16.4271Z" fill="#336699"/>
<path d="M26.4393 7.69678H9.56124C8.53166 7.69678 7.69727 8.53117 7.69727 9.56075V26.4386C7.69727 27.4679 8.53166 28.3026 9.56124 28.3026H26.4391C27.4684 28.3026 28.3031 27.4679 28.3031 26.4386V9.56075C28.3032 8.53117 27.4686 7.69678 26.4393 7.69678ZM14.0736 25.4892C14.0736 25.7889 13.8308 26.0317 13.5311 26.0317H11.2222C10.9225 26.0317 10.6797 25.7888 10.6797 25.4892V15.81C10.6797 15.5102 10.9226 15.2674 11.2222 15.2674H13.5312C13.831 15.2674 14.0737 15.5104 14.0737 15.81V25.4892H14.0736ZM12.3766 14.3549C11.1651 14.3549 10.1832 13.3727 10.1832 12.1611C10.1832 10.9497 11.1651 9.96765 12.3766 9.96765C13.5882 9.96765 14.5702 10.9498 14.5702 12.1611C14.5702 13.3729 13.5882 14.3549 12.3766 14.3549ZM26.1404 25.5329C26.1404 25.8084 25.9172 26.0319 25.6419 26.0319H23.164C22.8887 26.0319 22.6653 25.8085 22.6653 25.5329V20.9926C22.6653 20.3155 22.864 18.0247 20.8954 18.0247C19.3683 18.0247 19.0586 19.5927 18.9964 20.2961V25.5328C18.9964 25.8083 18.7732 26.0317 18.4976 26.0317H16.1013C15.8258 26.0317 15.6023 25.8084 15.6023 25.5328V15.7662C15.6023 15.4907 15.8257 15.2673 16.1013 15.2673H18.4976C18.7731 15.2673 18.9964 15.4907 18.9964 15.7662V16.6106C19.5627 15.7609 20.4043 15.1048 22.1958 15.1048C26.1631 15.1048 26.1406 18.8114 26.1406 20.8483V25.533H26.1404V25.5329Z" fill="white"/>
<path d="M26.4393 7.69678H17.96V15.2673H18.4976C18.7731 15.2673 18.9964 15.4907 18.9964 15.7662V16.6106C19.5627 15.7609 20.4043 15.1048 22.1959 15.1048C26.1632 15.1048 26.1407 18.8115 26.1407 20.8483V25.5329C26.1407 25.8084 25.9175 26.0318 25.6422 26.0318H23.1643C22.889 26.0318 22.6656 25.8084 22.6656 25.5329V20.9925C22.6656 20.3154 22.8643 18.0247 20.8957 18.0247C19.3686 18.0247 19.0589 19.5926 18.9967 20.296V25.5327C18.9967 25.8082 18.7735 26.0317 18.4979 26.0317H17.9602V28.3028H26.4396C27.4689 28.3028 28.3036 27.4681 28.3036 26.4388V9.56075C28.3033 8.53117 27.4686 7.69678 26.4393 7.69678Z" fill="#D1D1D1"/>
</g>
<defs>
<clipPath id="clip0">
<rect width="36" height="36" fill="white"/>
</clipPath>
</defs>
</svg>
