<svg width="36" height="36" viewBox="0 0 36 36" fill="none" xmlns="http://www.w3.org/2000/svg">
<path d="M18 36C27.9411 36 36 27.9411 36 18C36 8.05887 27.9411 0 18 0C8.05887 0 0 8.05887 0 18C0 27.9411 8.05887 36 18 36Z" fill="#65A2D9"/>
<path d="M27.6343 9.79639C25.7567 11.4255 23.8899 12.8532 22.3641 14.8485C18.6107 19.3746 14.0241 25.7961 7.78223 24.8389L18.9345 35.9761C28.3884 35.4929 35.9148 27.7149 35.9984 18.1606L27.6343 9.79639Z" fill="#3A7CA5"/>
<path d="M27.9758 11.4235C27.5179 11.6267 27.0427 11.7868 26.555 11.9027C27.0924 11.3922 27.4965 10.7534 27.7243 10.0406C27.7894 9.83715 27.5683 9.66102 27.3846 9.77C26.7061 10.1725 25.9752 10.4743 25.2124 10.6673C25.1682 10.6786 25.1226 10.6842 25.0767 10.6842C24.9376 10.6842 24.8028 10.6327 24.6963 10.539C23.8847 9.82365 22.8407 9.42969 21.7568 9.42969C21.2877 9.42969 20.8143 9.50281 20.3495 9.64702C18.909 10.0937 17.7975 11.2821 17.4486 12.748C17.3178 13.2977 17.2825 13.8483 17.3434 14.3838C17.3502 14.4454 17.3213 14.4883 17.3034 14.5084C17.2718 14.5437 17.2272 14.564 17.1807 14.564C17.1756 14.564 17.1701 14.5638 17.1649 14.5633C14.0117 14.2702 11.1682 12.7512 9.15853 10.2857C9.05623 10.1599 8.85949 10.1754 8.77779 10.3153C8.38432 10.9908 8.17634 11.763 8.17634 12.5489C8.17634 13.7531 8.66037 14.8882 9.50081 15.7157C9.14735 15.6318 8.80521 15.4998 8.48733 15.3232C8.33349 15.2379 8.14441 15.3478 8.14223 15.5237C8.12044 17.3128 9.16795 18.9048 10.7371 19.6216C10.7055 19.6223 10.6738 19.6226 10.6422 19.6226C10.3935 19.6226 10.1415 19.5988 9.89372 19.5512C9.72054 19.5184 9.57506 19.6825 9.62878 19.8503C10.1383 21.4406 11.5073 22.6127 13.1459 22.8786C11.7861 23.7915 10.2024 24.2729 8.55434 24.2729L8.04063 24.2727C7.88208 24.2727 7.74813 24.376 7.70806 24.5294C7.66833 24.6802 7.74138 24.8397 7.87652 24.9182C9.73362 25.999 11.8521 26.5702 14.0034 26.5702C15.8867 26.5702 17.6483 26.1966 19.2393 25.4594C20.6979 24.7838 21.9868 23.818 23.0704 22.5887C24.0798 21.4436 24.869 20.1218 25.4163 18.6598C25.9379 17.2664 26.2137 15.7793 26.2137 14.3599V14.2921C26.2137 14.0642 26.3167 13.8497 26.4966 13.7036C27.1791 13.1494 27.7735 12.4971 28.263 11.7649C28.3924 11.5717 28.1885 11.3293 27.9758 11.4235Z" fill="white"/>
<path d="M27.9758 11.4235C27.5178 11.6267 27.0427 11.7868 26.555 11.9027C27.0924 11.3922 27.4964 10.7534 27.7244 10.0406C27.7895 9.83715 27.5684 9.66102 27.3846 9.77C26.7061 10.1725 25.9753 10.4743 25.2124 10.6673C25.1683 10.6786 25.1227 10.6842 25.0768 10.6842C24.9376 10.6842 24.8028 10.6327 24.6963 10.539C23.8848 9.82365 22.8408 9.42969 21.7569 9.42969C21.2879 9.42969 20.8144 9.50281 20.3495 9.64702C19.3425 9.95928 18.4973 10.6348 17.96 11.5135V25.9611C18.3974 25.8185 18.8243 25.6516 19.2395 25.4592C20.6981 24.7835 21.987 23.8177 23.0706 22.5885C24.08 21.4433 24.8692 20.1216 25.4165 18.6595C25.9381 17.2662 26.2139 15.779 26.2139 14.3596V14.2919C26.2139 14.064 26.3169 13.8495 26.4968 13.7034C27.1793 13.1491 27.7737 12.4969 28.2632 11.7647C28.3924 11.5717 28.1885 11.3292 27.9758 11.4235Z" fill="#D1D1D1"/>
</svg>
