<svg width="42" height="42" viewBox="0 0 42 42" fill="none" xmlns="http://www.w3.org/2000/svg">
<g filter="url(#filter0_d)">
<rect x="5" y="5" width="30" height="30" rx="15" fill="url(#paint0_linear)"/>
</g>
<g clip-path="url(#clip0)">
<path d="M12.0014 20.0021C12.021 20.3317 12.2396 20.6091 12.5562 20.7038L18.4173 22.4758L18.6327 26.5159C18.6425 26.6758 18.7502 26.8162 18.9036 26.8684C18.946 26.8847 18.9917 26.8912 19.0341 26.8912C19.1483 26.8912 19.256 26.8455 19.3343 26.7574L21.4066 24.4632L24.3437 26.4964C24.4742 26.5877 24.6276 26.6367 24.7875 26.6367C25.1563 26.6367 25.4761 26.3756 25.5544 26.0101L27.9922 13.5862C28.0216 13.4426 27.9661 13.2925 27.8551 13.2011C27.7409 13.1065 27.5875 13.0837 27.4505 13.1391L12.4713 19.2352C12.1678 19.3723 11.9818 19.6725 12.0014 20.0021ZM19.3768 25.5141L19.243 22.9653L20.7441 24.0031L19.3768 25.5141ZM24.7745 25.8241L19.429 22.1234L26.9251 14.872L24.7745 25.8241ZM26.1027 14.5522L18.6914 21.722L12.8368 19.9532L26.1027 14.5522Z" fill="white"/>
</g>
<defs>
<filter id="filter0_d" x="0" y="0" width="42" height="42" filterUnits="userSpaceOnUse" color-interpolation-filters="sRGB">
<feFlood flood-opacity="0" result="BackgroundImageFix"/>
<feColorMatrix in="SourceAlpha" type="matrix" values="0 0 0 0 0 0 0 0 0 0 0 0 0 0 0 0 0 0 127 0"/>
<feOffset dx="1" dy="1"/>
<feGaussianBlur stdDeviation="3"/>
<feColorMatrix type="matrix" values="0 0 0 0 0.027451 0 0 0 0 0.403922 0 0 0 0 0.670588 0 0 0 0.4 0"/>
<feBlend mode="normal" in2="BackgroundImageFix" result="effect1_dropShadow"/>
<feBlend mode="normal" in="SourceGraphic" in2="effect1_dropShadow" result="shape"/>
</filter>
<linearGradient id="paint0_linear" x1="20" y1="5" x2="-8.5" y2="49" gradientUnits="userSpaceOnUse">
<stop stop-color="#0767AB"/>
<stop offset="1" stop-color="#CDE7F9"/>
</linearGradient>
<clipPath id="clip0">
<rect width="16" height="16" fill="white" transform="translate(12 12)"/>
</clipPath>
</defs>
</svg>
