<svg width="35" height="35" viewBox="0 0 35 35" fill="none" xmlns="http://www.w3.org/2000/svg">
<rect x="0.5" y="0.5" width="34" height="34" rx="17" fill="white" stroke="#E74C3C"/>
<g clip-path="url(#clip0)">
<path d="M15.3927 11.4545C15.3927 10.9776 15.7649 10.629 16.2419 10.629H19.7328C20.2096 10.629 20.5819 10.9776 20.5819 11.4545V12.3587H21.2108V11.4545C21.2108 10.6308 20.5565 10 19.7328 10H16.2419C15.4182 10 14.7637 10.6308 14.7637 11.4545V12.3587H15.3927V11.4545Z" fill="#E74C3C"/>
<path d="M14.2699 26.0003H21.7077C22.4248 26.0003 22.9814 25.3695 22.9814 24.5851V14.875H12.9961V24.5851C12.9961 25.3695 13.5526 26.0003 14.2699 26.0003ZM19.9936 16.3767C19.9936 16.203 20.1345 16.0622 20.3081 16.0622C20.4818 16.0622 20.6226 16.203 20.6226 16.3767V23.8067C20.6226 23.9803 20.4818 24.1212 20.3081 24.1212C20.1345 24.1212 19.9936 23.9803 19.9936 23.8067V16.3767ZM17.6742 16.3767C17.6742 16.203 17.815 16.0622 17.9887 16.0622C18.1624 16.0622 18.3032 16.203 18.3032 16.3767V23.8067C18.3032 23.9803 18.1624 24.1212 17.9887 24.1212C17.815 24.1212 17.6742 23.9803 17.6742 23.8067V16.3767ZM15.3548 16.3767C15.3548 16.203 15.4956 16.0622 15.6693 16.0622C15.843 16.0622 15.9838 16.203 15.9838 16.3767V23.8067C15.9838 23.9803 15.843 24.1212 15.6693 24.1212C15.4956 24.1212 15.3548 23.9803 15.3548 23.8067V16.3767Z" fill="#E74C3C"/>
<path d="M12.673 14.2463H23.3029C23.7371 14.2463 24.0891 13.8943 24.0891 13.4601C24.0891 13.0258 23.7371 12.6738 23.3029 12.6738H12.673C12.2387 12.6738 11.8867 13.0258 11.8867 13.4601C11.8867 13.8943 12.2387 14.2463 12.673 14.2463Z" fill="#E74C3C"/>
</g>
<defs>
<clipPath id="clip0">
<rect width="16" height="16" fill="white" transform="translate(10 10)"/>
</clipPath>
</defs>
</svg>
