<svg width="24" height="24" viewBox="0 0 24 24" fill="none" xmlns="http://www.w3.org/2000/svg">
<g clip-path="url(#clip0)">
<path d="M18.502 0H1.50195C0.673531 0 0.00195312 0.671578 0.00195312 1.5V13.5C0.00195312 14.3284 0.673531 15 1.50195 15H8.00197V14H1.50195C1.22581 14 1.00194 13.7761 1.00194 13.5V1.5C1.00194 1.22386 1.22581 0.999984 1.50195 0.999984H18.502C18.7781 0.999984 19.002 1.22386 19.002 1.5V10.5H20.002V1.5C20.002 0.671578 19.3304 0 18.502 0Z" fill="#0767AB"/>
<path d="M6.99998 14.5H6V17.5H6.99998V14.5Z" fill="#0767AB"/>
<path d="M3.5 12C3.22386 12 2.99998 11.7761 2.99998 11.5V10.5H2V11.5C2 12.3284 2.67158 13 3.5 13H4.49999V12H3.5Z" fill="#0767AB"/>
<path d="M2.99998 8.5H2V9.49998H2.99998V8.5Z" fill="#0767AB"/>
<path d="M18.2742 10.591C17.2553 9.57195 15.8733 8.99946 14.4323 8.99951C11.432 8.99965 8.99991 11.432 9 14.4322C9.00014 17.4325 11.4324 19.8646 14.4327 19.8645C15.8733 19.8645 17.2548 19.2923 18.2735 18.2737C20.3952 16.1524 20.3955 12.7128 18.2742 10.591ZM14.4297 18.865C11.9817 18.8642 9.99788 16.879 9.99872 14.431C9.99956 11.983 11.9847 9.99917 14.4327 10C15.6093 9.99682 16.7382 10.465 17.5672 11.3C18.3977 12.1315 18.8641 13.2588 18.8637 14.434C18.8629 16.882 16.8777 18.8659 14.4297 18.865Z" fill="#0767AB"/>
<path d="M23.8537 21.75L20.7152 18.6125C20.6214 18.5188 20.4942 18.4661 20.3617 18.4661C20.2291 18.4661 20.1019 18.5188 20.0082 18.6125L18.6132 20.0076C18.418 20.2028 18.418 20.5193 18.6132 20.7146L21.7517 23.8536C21.8455 23.9474 21.9726 24 22.1052 24C22.238 23.9996 22.3652 23.9464 22.4587 23.8521L23.8537 22.4571C24.0489 22.2618 24.0489 21.9453 23.8537 21.75ZM22.1051 22.7931L19.6736 20.361L20.3616 19.6731L22.7931 22.1051L22.1051 22.7931Z" fill="#0767AB"/>
<path d="M18.2735 17.5661L17.5664 18.2732L19.3101 20.0169L20.0172 19.3098L18.2735 17.5661Z" fill="#0767AB"/>
<path d="M14.5 11V12C15.88 12.0016 16.9983 13.12 17 14.5H18C17.9978 12.5679 16.4321 11.0022 14.5 11Z" fill="#0767AB"/>
<path d="M8.99999 17H5V18H8.99999V17Z" fill="#0767AB"/>
<path d="M7.5 2C6.67158 2 6 2.67158 6 3.5C6 4.32842 6.67158 5 7.5 5C8.32842 5 9 4.32842 9 3.5C9 2.67158 8.32842 2 7.5 2ZM7.5 3.99997C7.22386 3.99997 6.99998 3.77609 6.99998 3.49995C6.99998 3.22381 7.22386 2.99994 7.5 2.99994C7.77614 2.99994 8.00001 3.22381 8.00001 3.49995C8.00001 3.77614 7.77614 3.99997 7.5 3.99997Z" fill="#0767AB"/>
<path d="M11 5.5C10.1716 5.5 9.5 6.17158 9.5 7C9.5 7.82842 10.1716 8.5 11 8.5C11.8284 8.5 12.5 7.82842 12.5 7C12.5 6.17158 11.8284 5.5 11 5.5ZM11 7.50001C10.7239 7.50001 10.5 7.27614 10.5 7C10.5 6.72386 10.7239 6.49998 11 6.49998C11.2761 6.49998 11.5 6.72386 11.5 7C11.5 7.27614 11.2761 7.50001 11 7.50001Z" fill="#0767AB"/>
<path d="M6.64644 3.64678L4.14648 6.14673L4.85357 6.85382L7.35352 4.35386L6.64644 3.64678Z" fill="#0767AB"/>
<path d="M8.35162 3.64789L7.64453 4.35498L10.1445 6.85493L10.8516 6.14784L8.35162 3.64789Z" fill="#0767AB"/>
<path d="M14.5 2C13.6716 2 13 2.67158 13 3.5C13 4.32842 13.6716 5 14.5 5C15.3284 5 16 4.32842 16 3.5C16 2.67158 15.3285 2 14.5 2ZM14.5 3.99997C14.2239 3.99997 14 3.77609 14 3.49995C14 3.22381 14.2239 2.99994 14.5 2.99994C14.7761 2.99994 15 3.22381 15 3.49995C15 3.77614 14.7761 3.99997 14.5 3.99997Z" fill="#0767AB"/>
<path d="M13.6464 3.64848L11.1465 6.14844L11.8536 6.85553L14.3535 4.35557L13.6464 3.64848Z" fill="#0767AB"/>
</g>
<defs>
<clipPath id="clip0">
<rect width="24" height="24" fill="white"/>
</clipPath>
</defs>
</svg>
